<svg id="Case_Study_Blocks" data-name="Case Study Blocks" xmlns="http://www.w3.org/2000/svg" viewBox="0 -11 173.95 39"><defs><style>.cls-1,.cls-3{fill:#ed1a3b;}.cls-2{fill:#fff;}.cls-2,.cls-3{fill-rule:evenodd;}.cls-4{fill:#231f20;}</style></defs><title>bae-logo</title><g id="BAE_SYstems_Full" data-name="BAE SYstems Full"><rect class="cls-1" width="173.95" height="26.78"/><path class="cls-2" d="M166.22,95.71c.71,2.87,3.17,4,5.94,4S178,98.46,178,95.29a3.68,3.68,0,0,0-2-3.37,14,14,0,0,0-3.74-1.06c-.49-.12-1.46-.25-1.46-.94s.77-.84,1.31-.84a2,2,0,0,1,2.13,1.33l3.34-1c-.81-2.29-3-3.23-5.3-3.23a6.65,6.65,0,0,0-3.79,1,4.08,4.08,0,0,0-1.69,3.31c0,3.14,2.94,3.81,5.42,4.29.59.12,1.61.27,1.61,1.08s-1,.81-1.55.81A2.2,2.2,0,0,1,170,95l-3.75.68" transform="translate(-12.96 -79.62)"/><polygon class="cls-2" points="149.22 6.71 143.9 6.71 142.09 13.71 140.17 6.71 134.89 6.71 134.89 19.91 137.92 19.91 137.92 10.48 140.44 19.91 143.02 19.91 145.42 10.48 145.46 19.91 149.22 19.91 149.22 6.71"/><polygon class="cls-2" points="129.91 16.76 123.98 16.76 123.98 14.62 128.78 14.62 128.78 11.68 123.98 11.68 123.98 9.75 129.91 9.75 129.91 6.71 120.02 6.71 120.02 19.91 129.91 19.91 129.91 16.76"/><polygon class="cls-2" points="112.87 9.89 115.58 9.89 115.58 6.71 106.26 6.71 106.26 9.89 109.03 9.89 109.03 19.91 112.87 19.91 112.87 9.89"/><path class="cls-2" d="M103.77,95.71c.71,2.87,3.17,4,5.94,4s5.88-1.27,5.88-4.44a3.67,3.67,0,0,0-2-3.37,14,14,0,0,0-3.73-1.06c-.5-.12-1.46-.25-1.46-.94s.77-.84,1.3-.84a2,2,0,0,1,2.13,1.33l3.34-1c-.81-2.29-3-3.23-5.3-3.23a6.65,6.65,0,0,0-3.78,1,4.09,4.09,0,0,0-1.69,3.31c0,3.14,2.94,3.81,5.42,4.29.6.12,1.62.27,1.62,1.08s-1,.81-1.56.81a2.21,2.21,0,0,1-2.4-1.6l-3.74.68" transform="translate(-12.96 -79.62)"/><polygon class="cls-2" points="88.48 6.71 84.94 6.71 82.74 11.06 80.43 6.71 75.99 6.71 80.43 14.33 80.43 19.91 84.36 19.91 84.36 14.33 88.48 6.71"/><path class="cls-2" d="M74.37,95.71c.71,2.87,3.17,4,5.94,4s5.88-1.27,5.88-4.44a3.66,3.66,0,0,0-2-3.37,13.91,13.91,0,0,0-3.73-1.06c-.5-.12-1.46-.25-1.46-.94s.77-.84,1.31-.84a2,2,0,0,1,2.13,1.33l3.34-1c-.8-2.29-3-3.23-5.3-3.23a6.63,6.63,0,0,0-3.78,1A4.09,4.09,0,0,0,75,90.45c0,3.14,2.94,3.81,5.42,4.29.6.12,1.62.27,1.62,1.08s-1,.81-1.56.81a2.2,2.2,0,0,1-2.4-1.6l-3.75.68" transform="translate(-12.96 -79.62)"/><polygon class="cls-2" points="51.33 16.76 45.39 16.76 45.39 14.62 50.19 14.62 50.19 11.68 45.39 11.68 45.39 9.75 51.33 9.75 51.33 6.71 41.42 6.71 41.42 19.91 51.33 19.91 51.33 16.76"/><polygon class="cls-2" points="33.01 19.91 37.14 19.91 33.01 6.71 28.74 6.71 24.65 19.91 27.94 19.91 28.74 17.32 32.26 17.32 33.01 19.91"/><path class="cls-2" d="M22.91,99.53h6a6.22,6.22,0,0,0,3.63-.75,3.78,3.78,0,0,0,1.35-3.08,3,3,0,0,0-2.56-3,2.94,2.94,0,0,0,2.23-2.9A3.49,3.49,0,0,0,32.2,87a4.72,4.72,0,0,0-2.85-.67H22.91V99.53" transform="translate(-12.96 -79.62)"/><polygon class="cls-3" points="29.41 14.43 30.49 10.6 31.57 14.43 29.41 14.43"/><path class="cls-3" d="M26.62,91.4V89.17H28.2c.77,0,1.57.13,1.57,1.12a1.19,1.19,0,0,1-.38.86,1.63,1.63,0,0,1-1.13.26H26.62" transform="translate(-12.96 -79.62)"/><path class="cls-3" d="M26.62,96.59V94.2h1.6a2.72,2.72,0,0,1,1.17.17,1.15,1.15,0,0,1,.15,2,1.75,1.75,0,0,1-1.17.25H26.62" transform="translate(-12.96 -79.62)"/></g></svg>